:SAMPLES-PER-SECOND 30
:FULLY-SPECIFIED
:DEGREES
158
root  -28.0664 37.8757 23.9097 169.979 -62.2728 -175.684
RightUpLeg  6.17021 -2.71297 5.68273
RightLeg  28.0554 0.592514 0.106573
RightFoot  -25.7716 -0.581378 -3.22068
RightToes  2.32829e-010 0 -3.6325e-017
Spine  12.5396 0.128284 12.8833
Spine1  7.03204 1.94802 -3.04177
HEad  2.87484 1.46487 -3.3713
LeftShoulder1  -0.121581 3.81723 -32.6674
LeftArm  1.83923 12.0946 -39.8834
LeftForeArm  26.2924 -30.3144 -5.14574
LeftHand  -0.01566 3.25365 -0.0413488
RightShoulder  -0.630937 -5.31951 28.0185
RightArm  23.1143 9.07773 49.2122
RightForeArm  4.83198 19.8741 5.09637
RightHand  -0.222875 2.47682 -3.49377
LeftUpLeg  -19.0017 5.93627 1.71049
LeftLeg  -2.44063 9.8124 -4.07255
LeftFoot  26.9849 0.388976 -1.66112
LeftToes  -3.54706e-010 1.16038e-010 5.28031e-012
159
root  -26.987 37.8189 24.328 167.329 -62.2923 -173.769
RightUpLeg  4.66929 -3.92754 6.64869
RightLeg  29.2066 0.904154 0.303943
RightFoot  -25.2289 -0.712352 -4.44955
RightToes  2.32829e-010 0 -3.6325e-017
Spine  13.3629 -0.144908 13.1748
Spine1  7.05156 1.39626 -1.6366
HEad  2.03513 0.765229 -2.12288
LeftShoulder1  -0.105444 3.77635 -32.5717
LeftArm  0.332793 11.6606 -39.6585
LeftForeArm  25.987 -31.9566 -5.5546
LeftHand  -0.000121325 2.16095 -0.427595
RightShoulder  -0.57622 -5.17907 27.6326
RightArm  19.3139 10.0836 49.9062
RightForeArm  10.3986 13.0758 7.00541
RightHand  -0.157897 2.15259 -2.6258
LeftUpLeg  -18.3494 6.20273 3.57472
LeftLeg  -3.44947 1.97328 -2.90744
LeftFoot  25.6694 4.45152 -13.8223
LeftToes  -3.54706e-010 1.16038e-010 5.28031e-012
160
root  -25.9717 37.9553 24.7255 167.011 -62.3657 -174.091
RightUpLeg  3.2624 -4.57605 6.55665
RightLeg  29.448 1.12481 0.442431
RightFoot  -23.6715 -0.718489 -5.15752
RightToes  2.32829e-010 0 -3.6325e-017
Spine  14.1749 -0.204113 12.8978
Spine1  6.8078 1.3346 -1.29731
HEad  1.53041 0.0809277 -1.26609
LeftShoulder1  -0.110115 3.78787 -32.6453
LeftArm  0.662159 10.3979 -38.9236
LeftForeArm  26.1645 -32.2638 -5.62096
LeftHand  -0.0156076 2.99068 -0.056232
RightShoulder  -0.612719 -5.25343 28.2874
RightArm  14.2523 9.57087 49.5506
RightForeArm  16.4343 7.10093 7.65208
RightHand  -0.115126 0.663991 -2.27607
LeftUpLeg  -18.728 6.1217 4.37256
LeftLeg  -0.675247 -3.20975 -1.76691
LeftFoot  21.0169 4.59554 -15.9433
LeftToes  -3.54706e-010 1.16038e-010 5.28031e-012
161
root  -25.0035 38.2211 25.0647 167.058 -63.1494 -174.674
RightUpLeg  2.4618 -5.14955 6.39289
RightLeg  28.2951 1.00146 0.340782
RightFoot  -21.4282 -0.617835 -5.35829
RightToes  2.32829e-010 0 -3.6325e-017
Spine  14.4868 -0.330736 12.1542
Spine1  6.95344 1.12067 -0.853201
HEad  1.38838 -0.499659 -0.770392
LeftShoulder1  -0.0627096 3.66656 -32.3636
LeftArm  0.804024 8.90374 -39.0209
LeftForeArm  25.5494 -31.4545 -5.45904
LeftHand  -0.0229323 2.67242 0.410158
RightShoulder  -0.626559 -5.28734 28.391
RightArm  12.3174 7.82847 49.504
RightForeArm  18.2332 2.84573 7.05424
RightHand  -0.0747249 0.159461 -1.61077
LeftUpLeg  -19.1965 5.08958 4.80645
LeftLeg  4.74778 -6.56936 -0.765519
LeftFoot  13.7064 1.81004 -8.55237
LeftToes  -3.54706e-010 1.16038e-010 5.28031e-012
162
root  -24.1386 38.5143 25.3914 168.001 -64.0389 -175.975
RightUpLeg  1.81605 -5.98509 5.69668
RightLeg  26.7019 1.22083 0.422353
RightFoot  -19.1387 -0.517875 -5.69374
RightToes  2.32829e-010 0 -3.6325e-017
Spine  14.5111 -0.38485 11.3488
Spine1  6.77624 0.973667 -0.53533
HEad  1.37608 -1.2505 -0.826786
LeftShoulder1  0.0040245 3.49335 -32.1837
LeftArm  0.661942 7.69899 -39.149
LeftForeArm  27.2893 -31.024 -5.25831
LeftHand  -0.011164 2.75882 -0.452351
RightShoulder  -0.694818 -5.44573 29.0988
RightArm  11.6024 4.88083 48.1927
RightForeArm  18.7987 1.2261 6.70701
RightHand  -0.0829553 -0.696697 -1.96618
LeftUpLeg  -19.0501 1.55209 5.74295
LeftLeg  10.869 -4.46183 -0.202888
LeftFoot  8.98218 0.825744 -5.03073
LeftToes  -3.54706e-010 1.16038e-010 5.28031e-012
163
root  -23.3658 38.7475 25.7217 168.458 -65.1124 -176.392
RightUpLeg  1.07493 -6.85893 5.38581
RightLeg  24.9534 1.16335 0.39478
RightFoot  -16.9777 -0.405539 -5.89999
RightToes  2.32829e-010 0 -3.6325e-017
Spine  14.1633 -0.4804 10.6759
Spine1  6.45012 0.609763 0.50143
HEad  1.03608 -1.35745 -1.69969
LeftShoulder1  -0.058436 3.65601 -32.2915
LeftArm  1.54803 6.70498 -39.1882
LeftForeArm  28.7193 -31.0067 -5.17499
LeftHand  0.036416 3.31469 -3.07878
RightShoulder  -0.709845 -5.48163 29.213
RightArm  11.7416 1.08966 46.65
RightForeArm  19.2462 1.61467 6.64683
RightHand  -0.0691614 -0.773307 -1.66969
LeftUpLeg  -18.8426 -1.32218 6.89266
LeftLeg  17.7803 -1.79933 -0.405761
LeftFoot  6.55807 0.909881 -6.02986
LeftToes  -3.54706e-010 1.16038e-010 5.28031e-012
164
root  -22.5927 38.9441 26.0697 168.524 -66.5983 -176.363
RightUpLeg  0.420478 -7.54768 5.19036
RightLeg  23.0313 0.55083 0.369211
RightFoot  -14.8937 -0.287102 -6.00866
RightToes  2.32829e-010 0 -3.6325e-017
Spine  13.5966 -0.843926 10.9864
Spine1  6.61637 0.361888 0.539324
HEad  0.406864 -2.15614 -2.28504
LeftShoulder1  -0.0423827 3.61427 -32.2459
LeftArm  3.39795 5.06459 -39.3786
LeftForeArm  27.7847 -30.697 -5.15347
LeftHand  0.00776676 2.98911 -1.22511
RightShoulder  -0.756196 -5.61797 29.1199
RightArm  12.3133 -3.19681 45.1275
RightForeArm  19.0196 3.84229 6.65402
RightHand  -0.0546898 -0.0150616 -1.17549
LeftUpLeg  -18.2853 -2.60488 7.1406
LeftLeg  25.3206 -1.47837 -0.415299
LeftFoot  3.06005 0.712365 -5.76569
LeftToes  -3.54706e-010 1.16038e-010 5.28031e-012
165
root  -21.8347 39.0768 26.4159 168.966 -68.0049 -176.489
RightUpLeg  -0.592767 -7.43769 4.97282
RightLeg  21.478 -0.595416 0.379822
RightFoot  -13.1537 -0.184628 -6.04246
RightToes  2.32829e-010 0 -3.6325e-017
Spine  12.7581 -1.0458 10.6808
Spine1  6.9263 0.0774649 1.1945
HEad  -0.0357712 -2.926 -3.44307
LeftShoulder1  -0.0386955 3.60478 -32.165
LeftArm  3.54139 4.13602 -40.157
LeftForeArm  27.7195 -31.2044 -5.27796
LeftHand  0.00097769 2.61681 -0.670327
RightShoulder  -0.740531 -5.58322 28.9491
RightArm  13.7523 -7.1191 43.3776
RightForeArm  18.1811 6.07691 6.96479
RightHand  -0.0753454 0.180189 -1.60231
LeftUpLeg  -17.6055 -3.37269 6.91101
LeftLeg  33.3512 0.101668 0.410707
LeftFoot  0.194187 0.420465 -4.14346
LeftToes  -3.54706e-010 1.16038e-010 5.28031e-012
166
root  -21.0759 39.1444 26.7745 168.597 -69.5434 -175.407
RightUpLeg  -2.06675 -7.26319 5.08035
RightLeg  20.2191 -2.02625 0.53317
RightFoot  -11.6452 -0.0942908 -5.94533
RightToes  2.32829e-010 0 -3.6325e-017
Spine  11.9273 -1.43125 10.8257
Spine1  6.79464 -0.325678 1.66231
HEad  -1.65731 -2.67597 -2.55968
LeftShoulder1  -0.129513 3.84048 -32.3653
LeftArm  4.37061 3.16944 -40.6129
LeftForeArm  27.9337 -32.0039 -5.45706
LeftHand  0.00707573 3.06496 -1.19547
RightShoulder  -0.689209 -5.45892 28.57
RightArm  15.1551 -10.7478 41.814
RightForeArm  17.972 8.22092 7.09973
RightHand  -0.0693971 -0.00664845 -1.50639
LeftUpLeg  -16.4901 -3.09383 6.80535
LeftLeg  40.4646 1.21317 1.48318
LeftFoot  -2.47496 0.175857 -2.1012
LeftToes  -3.54706e-010 1.16038e-010 5.28031e-012
167
root  -20.3015 39.1695 27.128 168.383 -71.1503 -174.281
RightUpLeg  -3.8791 -7.20482 5.1238
RightLeg  19.1119 -3.74283 0.646183
RightFoot  -10.4347 -0.0253478 -5.7253
RightToes  2.32829e-010 0 -3.6325e-017
Spine  10.7435 -1.7117 11.0039
Spine1  6.97526 -0.625776 1.71284
HEad  -3.31604 -3.03822 -1.56836
LeftShoulder1  -0.115031 3.80031 -32.6764
LeftArm  4.85803 1.79824 -41.5421
LeftForeArm  28.245 -32.0936 -5.46172
LeftHand  0.0246865 1.80408 -1.15136
RightShoulder  -0.724446 -5.55636 28.6307
RightArm  17.1643 -13.1918 40.1446
RightForeArm  17.0202 9.78586 7.21794
RightHand  -0.0627552 -0.368451 -1.42164
LeftUpLeg  -14.7467 -2.50109 6.41101
LeftLeg  45.7795 1.90108 2.47301
LeftFoot  -4.47387 0.104382 -1.31049
LeftToes  -3.54706e-010 1.16038e-010 5.28031e-012
168
root  -19.5323 39.1735 27.4637 167.865 -72.5392 -173.302
RightUpLeg  -5.5095 -7.36289 5.03196
RightLeg  18.6417 -5.05514 0.744263
RightFoot  -9.28386 0.0318492 -5.26937
RightToes  2.32829e-010 0 -3.6325e-017
Spine  9.84718 -2.00825 10.6165
Spine1  7.40376 -1.02605 2.04983
HEad  -3.58444 -2.17811 -0.942512
LeftShoulder1  -0.138676 3.85928 -32.8779
LeftArm  5.06545 0.559341 -42.8006
LeftForeArm  28.0983 -32.406 -5.54603
LeftHand  0.00896547 2.35692 -0.818541
RightShoulder  -0.664132 -5.39895 28.3473
RightArm  17.0421 -14.5116 39.394
RightForeArm  17.6606 9.66146 7.1103
RightHand  -0.0624053 0.0913144 -1.3453
LeftUpLeg  -11.33 -1.74403 5.899
LeftLeg  48.4676 1.4094 2.12112
LeftFoot  -5.70989 0.11104 -1.57206
LeftToes  -3.54706e-010 1.16038e-010 5.28031e-012
169
root  -18.7412 39.1583 27.7972 168.232 -73.5648 -173.121
RightUpLeg  -7.65783 -7.65402 4.88873
RightLeg  18.7705 -5.76157 0.643388
RightFoot  -7.83606 0.106366 -5.17394
RightToes  2.32829e-010 0 -3.6325e-017
Spine  9.14103 -2.25209 9.69396
Spine1  7.55417 -1.46757 2.53601
HEad  -2.87437 -3.76694 0.135342
LeftShoulder1  -0.174515 3.95035 -32.9237
LeftArm  6.10789 -0.678144 -43.9863
LeftForeArm  26.4906 -32.4378 -5.64499
LeftHand  -0.0163541 3.03883 -0.0366949
RightShoulder  -0.636112 -5.33026 28.1112
RightArm  15.9492 -14.2722 39.1672
RightForeArm  18.8465 8.2155 7.06188
RightHand  -0.0557 -0.803277 -1.31373
LeftUpLeg  -7.29787 -0.660832 5.2313
LeftLeg  48.7958 0.409208 0.929395
LeftFoot  -6.87805 0.157487 -3.0129
LeftToes  -3.54706e-010 1.16038e-010 5.28031e-012
170
root  -17.9446 39.1244 28.1288 168.854 -74.9819 -173.139
RightUpLeg  -9.75721 -8.45838 4.47531
RightLeg  18.7156 -5.90263 0.783641
RightFoot  -6.44573 0.19262 -5.52572
RightToes  2.32829e-010 0 -3.6325e-017
Spine  8.30238 -2.52922 8.41259
Spine1  7.63845 -2.04968 3.06507
HEad  -5.17315 -3.4173 2.45212
LeftShoulder1  -0.0845263 3.72251 -32.5671
LeftArm  6.70398 -1.69707 -45.6789
LeftForeArm  26.1395 -32.2875 -5.62803
LeftHand  -0.00443015 2.89408 -0.535926
RightShoulder  -0.613994 -5.27891 27.86
RightArm  14.3167 -13.7321 39.2969
RightForeArm  19.5019 7.13351 6.60486
RightHand  -0.0447955 -0.81314 -1.01597
LeftUpLeg  -3.09548 -0.0962995 4.57232
LeftLeg  47.0099 -0.337986 0.0269041
LeftFoot  -8.23165 0.184449 -4.96095
LeftToes  -3.54706e-010 1.16038e-010 5.28031e-012
171
root  -17.1323 39.0858 28.4274 168.566 -76.4024 -172.445
RightUpLeg  -11.5508 -8.82704 4.39715
RightLeg  18.4711 -6.79199 0.517142
RightFoot  -4.85467 0.28362 -5.57482
RightToes  2.32829e-010 0 -3.6325e-017
Spine  7.96476 -2.71291 6.64172
Spine1  7.40319 -2.69577 4.27719
HEad  -5.78645 -4.54654 4.38224
LeftShoulder1  -0.0680513 3.67996 -32.5294
LeftArm  7.73191 -2.74734 -46.9048
LeftForeArm  26.62 -32.2915 -5.60178
LeftHand  0.000511229 2.5874 -0.658543
RightShoulder  -0.627594 -5.32363 27.7662
RightArm  12.7486 -12.9198 39.3774
RightForeArm  18.5757 6.7233 6.04086
RightHand  -0.0281076 -1.36084 -0.601475
LeftUpLeg  1.35876 0.00278835 4.42397
LeftLeg  43.4388 -1.22836 -0.850866
LeftFoot  -9.85407 0.137153 -6.05026
LeftToes  -3.54706e-010 1.16038e-010 5.28031e-012
172
root  -16.2731 39.0055 28.7326 166.58 -78.0981 -170.116
RightUpLeg  -13.2282 -9.488 4.36288
RightLeg  18.1367 -7.79577 0.536056
RightFoot  -3.27453 0.381166 -5.71326
RightToes  2.32829e-010 0 -3.6325e-017
Spine  7.59195 -2.8984 5.56969
Spine1  7.43035 -3.16049 4.8715
HEad  -6.25323 -6.58245 6.88844
LeftShoulder1  -0.0196512 3.55463 -32.3067
LeftArm  9.419 -4.3219 -48.1085
LeftForeArm  26.6829 -32.1871 -5.57286
LeftHand  -0.0021708 2.49158 -0.640879
RightShoulder  -0.655168 -5.39461 27.9507
RightArm  11.1132 -12.3705 39.683
RightForeArm  16.867 7.6213 5.48741
RightHand  -0.0495402 0.00236374 -1.07603
LeftUpLeg  5.64472 -0.256088 4.89002
LeftLeg  38.4999 -2.19125 -1.50926
LeftFoot  -11.2212 0.0756385 -6.5552
LeftToes  -3.54706e-010 1.16038e-010 5.28031e-012
